. 
  
http://www.torrenting.com/        :     Greatest Movie Tracker on The Net!!!
 
http://www.Torrenting.com          :     Once & For all ;)


               www . Torrenting . Com 

(((((((((((((= Enjoy No RAR releases =))))))))))))))))))))


...................................NFO:....................................

.








































          
          
              
              
                    
                    
                    
                    

Empty.2011.DVDRip.XviD.AC3-SiC

Poster:
[img]http://img109.imageshack.us/img109/5793/mv5bmtm0mte2mzeyn15bml5.jpg[/img]

IMDB Link:
http://www.imdb.com/title/tt1798148/

Description:
A suspenseful drama about a young couple on a road trip who get caught in the midst of a worldwide gas shortage.  

General
Complete name                    : Empty.2011.DVDRip.XviD.AC3-SiC.avi
Format                           : AVI
Format/Info                      : Audio Video Interleave
File size                        : 1.37 GiB
Duration                         : 1h 21mn
Overall bit rate                 : 2 399 Kbps

Video
ID                               : 0
Format                           : MPEG-4 Visual
Format profile                   : Advanced Simple@L5
Format settings, BVOP            : 2
Format settings, QPel            : No
Format settings, GMC             : No warppoints
Format settings, Matrix          : Default (MPEG)
Muxing mode                      : Packed bitstream
Codec ID                         : XVID
Codec ID/Hint                    : XviD
Duration                         : 1h 21mn
Bit rate                         : 2 200 Kbps
Width                            : 720 pixels
Height                           : 384 pixels
Display aspect ratio             : 1.875
Frame rate                       : 23.976 fps
Color space                      : YUV
Chroma subsampling               : 4:2:0
Bit depth                        : 8 bits
Scan type                        : Progressive
Compression mode                 : Lossy
Bits/(Pixel*Frame)               : 0.332
Stream size                      : 1.25 GiB (92%)
Writing library                  : XviD 64

Audio
ID                               : 1
Format                           : AC-3
Format/Info                      : Audio Coding 3
Mode extension                   : CM (complete main)
Codec ID                         : 2000
Duration                         : 1h 21mn
Bit rate mode                    : Constant
Bit rate                         : 192 Kbps
Channel(s)                       : 2 channels
Channel positions                : Front: L R
Sampling rate                    : 48.0 KHz
Bit depth                        : 16 bits
Compression mode                 : Lossy
Stream size                      : 112 MiB (8%)
Alignment                        : Aligned on interleaves
Interleave, duration             : 64 ms (1.53 video frames)
Interleave, preload duration     : 192 ms
Title                            : empty T80 2_0ch 192Kbps DELAY 0ms


Screenshots:
[img]http://img225.imageshack.us/img225/253/snap1e.png[/img]
[img]http://img849.imageshack.us/img849/2956/snap2d.png[/img]
[img]http://img856.imageshack.us/img856/7266/snap3k.png[/img]
[img]http://img189.imageshack.us/img189/5862/snap4f.png[/img]
[img]http://img84.imageshack.us/img84/7044/snap5d.png[/img]

Note :   did my thing

Source Film : Empty.2011.LiMiTED.NTSC.DVDR-FiCODVDR thanks

Encoder: scumbag

Enjoy!

Respects to CaptainHomey, Cyanide, CM8, Rx, THC, ELEKTRI4KA, 
Killerhz, PA, YeFsTe, BoxSlots, MrRep and everyone in the struggle...